<svg viewBox="0 0 24 24"><g clip-path="url(#clip0_95_632)"><path d="M12.0182 22C11.8723 22 11.7264 21.9642 11.6169 21.9283L1.6932 18.0215C1.29187 17.8423 1 17.448 1 17.0179V6.98208C1 6.37276 1.4743 5.90681 2.09453 5.90681C2.71476 5.90681 3.18905 6.37276 3.18905 6.98208V16.2652L12.0182 19.7419L20.8474 16.2652V6.98208C20.8474 6.37276 21.3217 5.90681 21.942 5.90681C22.5622 5.90681 23.0365 6.37276 23.0365 6.98208V17.0179C23.0365 17.448 22.7811 17.8423 22.3433 18.0215L12.4196 21.9283C12.2736 21.9642 12.1642 22 12.0182 22Z" fill="#5E5BF0"></path><path d="M17.199 9.99283C17.0531 9.99283 16.9436 9.95699 16.7977 9.92115L6.8375 6.01434C6.29024 5.79928 5.99836 5.15412 6.21727 4.61649C6.47266 4.07885 7.09289 3.79211 7.64015 4.00717L17.5639 7.91398C18.1111 8.12903 18.403 8.77419 18.1841 9.31183C18.0382 9.74194 17.6368 9.99283 17.199 9.99283Z" fill="#66EDE5"></path><path d="M12.0182 12.0009C11.8723 12.0009 11.7264 11.9651 11.6169 11.9292L1.6932 7.98656C1.25539 7.84319 1 7.44893 1 6.98298C1 6.51703 1.25539 6.1586 1.6932 5.97939L11.5804 2.07258C11.8358 1.96505 12.1277 1.96505 12.3831 2.07258L22.3068 5.97939C22.7081 6.1586 23 6.55287 23 6.98298C23 7.41308 22.7446 7.80735 22.3068 7.98656L12.4196 11.8934C12.2736 11.9651 12.1277 12.0009 12.0182 12.0009ZM5.01327 6.98298L11.9818 9.74283L18.9502 6.98298L12.0182 4.22312L5.01327 6.98298Z" fill="#5E5BF0"></path><path d="M12.0182 22C11.398 22 10.9237 21.5341 10.9237 20.9247V10.8889C10.9237 10.2796 11.398 9.81362 12.0182 9.81362C12.6385 9.81362 13.1128 10.2796 13.1128 10.8889V20.9247C13.1128 21.5341 12.602 22 12.0182 22Z" fill="#5E5BF0"></path></g><defs><clipPath id="clip0_95_632"><rect width="22" height="20" fill="white" transform="translate(1 2)"></rect></clipPath></defs></svg>