<svg viewBox="0 0 24 24" role="img"><!--!--><g clip-path="url(#clip0_95_575)"><path d="M2.1 23C1.47667 23 1 22.5233 1 21.9V18.7467C1 15.08 3.01667 13.0633 6.68333 13.0633H13.1C16.7667 13.0633 18.7833 15.08 18.7833 18.7467V21.9C18.7833 22.5233 18.3067 23 17.6833 23C17.06 23 16.5833 22.5233 16.5833 21.9V18.7467C16.5833 16.29 15.52 15.2633 13.1 15.2633H6.68333C4.22667 15.2633 3.2 16.3267 3.2 18.7467V21.9C3.2 22.4867 2.72333 23 2.1 23Z" fill="#5E5BF0"></path><path d="M9.87332 12.1467C6.79332 12.1467 4.29999 9.65333 4.29999 6.57333C4.29999 3.49333 6.79332 1 9.87332 1C12.9533 1 15.4467 3.49333 15.4467 6.57333C15.4467 9.65333 12.9533 12.1467 9.87332 12.1467ZM9.87332 3.2C8.00332 3.2 6.49999 4.70333 6.49999 6.57333C6.49999 8.44333 8.00332 9.94667 9.87332 9.94667C11.7433 9.94667 13.2467 8.44333 13.2467 6.57333C13.2467 4.70333 11.7433 3.2 9.87332 3.2Z" fill="#66EDE5"></path><path d="M21.9 23C21.2767 23 20.8 22.5233 20.8 21.9V18.7467C20.8 16.5833 19.9567 15.9233 19.2967 15.63C18.7467 15.3733 18.5267 14.7133 18.7833 14.1633C19.04 13.6133 19.7 13.3933 20.25 13.65C21.4967 14.2367 23 15.63 23 18.7467V21.9C23 22.4866 22.4867 23 21.9 23Z" fill="#66EDE5"></path><path d="M15.74 11.8167C15.3 11.8167 14.8966 11.56 14.7133 11.12C14.4933 10.57 14.75 9.91 15.3366 9.69C16.62 9.17667 17.4633 7.96667 17.4633 6.57333C17.4633 5.18 16.62 3.97 15.3366 3.45667C14.7866 3.23667 14.4933 2.57667 14.7133 2.02667C14.9333 1.47667 15.5933 1.18333 16.1433 1.40333C18.27 2.24667 19.6266 4.26333 19.6266 6.57333C19.6266 8.88333 18.27 10.8633 16.1433 11.7433C15.9966 11.78 15.8866 11.8167 15.74 11.8167Z" fill="#5E5BF0"></path></g><defs><clipPath id="clip0_95_575"><rect width="22" height="22" fill="white" transform="translate(1 1)"></rect></clipPath></defs></svg>