<svg viewBox="0 0 24 24" role="img"><!--!--><path d="M9.37,4.77C9.18,3.57,8.09,3.9,7,4.19A8.39,8.39,0,0,0,4.24,5.53c-1,.72-1.78,3.75-2.12,5.26a19.35,19.35,0,0,0-.66,5.37c.08.69,1.12,1.46,2.62,2.21A6,6,0,0,0,7,19c.47-.14,1-1.4,1.17-1.82" style="fill:none;stroke:#5e5bf0;stroke-miterlimit:10;stroke-width:1.5px"></path><path d="M14.31,4.77c.19-1.2,1.28-.87,2.4-.58a6.79,6.79,0,0,1,2.73,1.34c.89.82,1.79,3.75,2.12,5.26a19.35,19.35,0,0,1,.66,5.37c-.08.69-1.12,1.46-2.62,2.21a6,6,0,0,1-2.91.59c-.48-.14-1-1.4-1.17-1.82" style="fill:none;stroke:#5e5bf0;stroke-miterlimit:10;stroke-width:1.5px"></path><ellipse cx="8.82" cy="12.31" rx="1.72" ry="2.01" style="fill:none;stroke:#66ede5;stroke-miterlimit:10;stroke-width:1.2px"></ellipse><ellipse cx="15.04" cy="12.22" rx="1.72" ry="2.01" style="fill:none;stroke:#66ede5;stroke-miterlimit:10;stroke-width:1.2px"></ellipse><path d="M4.35,15.05a.8.8,0,0,1,1.1-.15,11.93,11.93,0,0,0,12.65,0,.8.8,0,0,1,1.1.15.78.78,0,0,1-.31,1.11,13.39,13.39,0,0,1-14.23,0A.79.79,0,0,1,4.35,15.05Z" style="fill:#5e5bf0"></path><path d="M5.24,7.3a.78.78,0,0,1,.32-1.11,12.06,12.06,0,0,1,12.65,0,.78.78,0,0,1,.33,1.11.83.83,0,0,1-1.11.16,10.55,10.55,0,0,0-11.09,0A.83.83,0,0,1,5.24,7.3Z" style="fill:#5e5bf0"></path></svg>