<svg viewBox="0 0 24 24" role="img"><!--!--><path d="M12 17.88C11.68 17.88 11.4 17.76 11.16 17.52L3.95998 10.32C3.47998 9.84 3.47998 9.08 3.95998 8.64C4.43998 8.16 5.19998 8.16 5.63998 8.64L12 15L18.36 8.64C18.84 8.16 19.6 8.16 20.04 8.64C20.52 9.12 20.52 9.88 20.04 10.32L12.84 17.52C12.6 17.8 12.32 17.88 12 17.88Z" fill="#66EDE5"></path><path d="M22.8 24H1.2C0.52 24 0 23.48 0 22.8V12.64C0 11.96 0.52 11.44 1.2 11.44C1.88 11.44 2.4 11.96 2.4 12.64V21.6H21.6V12.64C21.6 11.96 22.12 11.44 22.8 11.44C23.48 11.44 24 11.96 24 12.64V22.8C24 23.48 23.48 24 22.8 24Z" fill="#5E5BF0"></path><path d="M12 16.6C11.32 16.6 10.8 16.08 10.8 15.4V1.2C10.8 0.52 11.32 0 12 0C12.68 0 13.2 0.52 13.2 1.2V15.4C13.2 16.08 12.68 16.6 12 16.6Z" fill="#66EDE5"></path></svg>