<svg viewBox="0 0 24 24" role="img"><!--!--><path d="M9.46762 18.4784C4.47686 18.4784 2.22177 13.9188 2.11087 13.7289C1.85209 13.1589 2.0739 12.475 2.59146 12.209C3.14599 11.943 3.81142 12.171 4.0702 12.7029C4.14414 12.8549 5.9556 16.3886 9.7264 16.1986C10.3549 16.1606 10.8724 16.6546 10.8724 17.3005C10.9094 17.9465 10.4288 18.4784 9.80033 18.4784C9.7264 18.4784 9.61549 18.4784 9.46762 18.4784Z" fill="#66EDE5"></path><path d="M16.3068 23H9.83731C9.20884 23 8.72825 22.506 8.72825 21.8601V17.3385C8.72825 16.6546 8.87612 16.0086 9.1349 15.4387C6.10348 14.2988 4.10718 11.905 4.10718 9.24525C4.10718 7.99136 4.51383 6.81347 5.29017 5.78756C4.99442 4.79965 4.92049 3.54577 4.99442 2.1019C5.06836 1.45596 5.54895 1 6.14045 1C6.47317 1 9.28278 1.038 10.9094 2.51986C12.3142 2.25389 13.7929 2.25389 15.2347 2.51986C16.8244 1.038 19.634 1 20.0037 1C20.5952 1 21.0758 1.45596 21.1127 2.0639C21.2236 3.50777 21.1127 4.76166 20.817 5.74957C21.5933 6.81347 22 7.99136 22 9.20725C22 11.867 20.0037 14.2608 16.9722 15.4007C17.231 16.0086 17.3789 16.6546 17.3789 17.3005V21.8221C17.4159 22.468 16.8983 23 16.3068 23ZM10.9464 20.7202H15.1978V17.3385C15.1978 16.6926 14.902 16.0846 14.4214 15.6667C14.0887 15.4007 13.9408 14.9447 14.0517 14.4888C14.1626 14.0708 14.4953 13.7288 14.902 13.6528C17.7856 13.0829 19.7819 11.2591 19.7819 9.20725C19.7819 8.10535 19.1904 7.26943 18.7098 6.73748C18.377 6.39551 18.3031 5.90155 18.5249 5.4456C18.6728 5.14162 18.8946 4.49568 18.8946 3.35579C17.9704 3.50777 16.8983 3.81174 16.4917 4.41969C16.2329 4.79965 15.7523 4.98964 15.3087 4.87565C13.8299 4.49568 12.2403 4.49568 10.7615 4.87565C10.3179 4.98964 9.87428 4.79965 9.57853 4.41969C9.17187 3.81174 8.09978 3.50777 7.17557 3.35579C7.21254 4.49568 7.39738 5.14162 7.54526 5.4456C7.7301 5.86356 7.65616 6.39551 7.36041 6.73748C6.87982 7.26943 6.28832 8.10535 6.28832 9.20725C6.28832 11.2591 8.28463 13.0449 11.1682 13.6528C11.5748 13.7288 11.9075 14.0708 12.0185 14.4888C12.1294 14.9067 11.9815 15.3627 11.6488 15.6667C11.1682 16.0846 10.8724 16.6926 10.8724 17.3385V20.7202H10.9464Z" fill="#5E5BF0"></path></svg>